<?xml version="1.0" encoding="UTF-8" standalone="no"?><!DOCTYPE svg PUBLIC "-//W3C//DTD SVG 1.1//EN" "http://www.w3.org/Graphics/SVG/1.1/DTD/svg11.dtd"><svg width="100%" height="100%" viewBox="0 0 96 71" version="1.1" xmlns="http://www.w3.org/2000/svg" xmlns:xlink="http://www.w3.org/1999/xlink" xml:space="preserve" xmlns:serif="http://www.serif.com/" style="fill-rule:evenodd;clip-rule:evenodd;stroke-linejoin:round;stroke-miterlimit:2;"><g><path d="M35.467,0l0,45.529l-7.897,-3.921l-0,-41.608l7.897,0Z" style="fill:#1c6297;"/><rect x="27.57" y="0" width="23.592" height="7.758" style="fill:#1c6297;"/><path d="M50.28,-0l-0.002,7.757c4.512,0.001 8.169,4.308 8.168,9.621c-0.001,5.312 -3.66,9.618 -8.173,9.617l-0.001,7.757c8.151,0.002 14.76,-7.776 14.762,-17.373c0.003,-9.596 -6.603,-17.377 -14.754,-17.379Z" style="fill:#1c6297;"/><rect x="48.488" y="26.998" width="2.673" height="7.754" style="fill:#1c6297;"/><path d="M47.276,16.174l-0.026,18.686l-7.061,0l0,-21.756l7.087,3.07Z" style="fill:#77dde9;"/></g><rect x="14.585" y="52.675" width="3.183" height="3.163" style="fill:#81d1e0;"/><rect x="14.593" y="57.088" width="3.175" height="13.157" style="fill:#1b6397;"/><path d="M0,70.245l0,-17.42l7.385,-0c0.801,-0 1.538,0.172 2.208,0.515c0.687,0.327 1.276,0.769 1.767,1.325c0.49,0.54 0.875,1.161 1.153,1.865c0.278,0.687 0.417,1.382 0.417,2.085c-0,0.736 -0.131,1.456 -0.393,2.159c-0.261,0.687 -0.629,1.3 -1.104,1.84c-0.474,0.54 -1.047,0.973 -1.717,1.301c-0.671,0.327 -1.407,0.49 -2.208,0.49l-4.122,0l-0,5.84l-3.386,-0Zm3.386,-8.808l3.925,-0c0.622,-0 1.137,-0.254 1.546,-0.761c0.425,-0.507 0.638,-1.194 0.638,-2.061c0,-0.442 -0.065,-0.834 -0.196,-1.178c-0.131,-0.359 -0.303,-0.662 -0.515,-0.907c-0.213,-0.246 -0.467,-0.426 -0.761,-0.54c-0.278,-0.131 -0.564,-0.196 -0.859,-0.196l-3.778,-0l-0,5.643Z" style="fill:#1c6297;fill-rule:nonzero;"/><path d="M23.259,57.388l2.773,4.024l0.196,0.442l0.245,-0.442l2.748,-4.024l3.386,0l-4.588,6.453l4.662,6.404l-3.386,-0l-2.846,-4l-0.221,-0.417l-0.196,0.417l-2.822,4l-3.386,-0l4.637,-6.404l-4.563,-6.453l3.361,0Z" style="fill:#1c6297;fill-rule:nonzero;"/><path d="M37.612,70.49c-0.621,-0 -1.202,-0.098 -1.742,-0.294c-0.54,-0.213 -1.006,-0.499 -1.398,-0.859c-0.393,-0.376 -0.704,-0.81 -0.933,-1.301c-0.212,-0.49 -0.319,-1.03 -0.319,-1.619c0,-0.605 0.131,-1.161 0.393,-1.668c0.278,-0.524 0.654,-0.965 1.128,-1.325c0.491,-0.36 1.072,-0.638 1.742,-0.834c0.671,-0.213 1.407,-0.319 2.209,-0.319c0.572,-0 1.128,0.049 1.668,0.147c0.556,0.098 1.047,0.237 1.472,0.417l0,-0.736c0,-0.851 -0.245,-1.505 -0.736,-1.963c-0.474,-0.458 -1.186,-0.687 -2.135,-0.687c-0.686,0 -1.357,0.123 -2.011,0.368c-0.655,0.246 -1.325,0.605 -2.012,1.08l-1.006,-2.086c1.652,-1.096 3.435,-1.644 5.348,-1.644c1.849,0 3.28,0.458 4.294,1.374c1.031,0.9 1.546,2.209 1.546,3.926l-0,3.999c-0,0.344 0.057,0.589 0.172,0.736c0.13,0.147 0.335,0.229 0.613,0.246l-0,2.797c-0.556,0.114 -1.039,0.171 -1.448,0.171c-0.621,0 -1.104,-0.139 -1.447,-0.417c-0.327,-0.278 -0.532,-0.646 -0.614,-1.104l-0.073,-0.711c-0.573,0.752 -1.268,1.325 -2.086,1.717c-0.818,0.393 -1.693,0.589 -2.625,0.589Zm0.932,-2.404c0.557,-0 1.08,-0.099 1.571,-0.295c0.507,-0.196 0.899,-0.458 1.177,-0.785c0.36,-0.278 0.54,-0.589 0.54,-0.932l0,-1.472c-0.392,-0.148 -0.818,-0.262 -1.276,-0.344c-0.458,-0.098 -0.899,-0.147 -1.325,-0.147c-0.85,-0 -1.545,0.196 -2.085,0.589c-0.54,0.376 -0.81,0.858 -0.81,1.447c0,0.556 0.213,1.023 0.638,1.399c0.425,0.36 0.949,0.54 1.57,0.54Z" style="fill:#1c6297;fill-rule:nonzero;"/><path d="M63.791,57.388l3.116,0l-5.373,12.857l-2.699,-0l-2.208,-5.643l-2.184,5.643l-2.699,-0l-5.348,-12.857l3.091,0l3.827,9.765l1.571,-4.171l-2.258,-5.569l2.65,-0l1.35,3.95l1.374,-3.95l2.649,-0l-2.232,5.569l1.545,4.171l3.828,-9.765Z" style="fill:#1c6297;fill-rule:nonzero;"/><path d="M73.924,70.49c-1.031,-0 -1.963,-0.172 -2.797,-0.515c-0.834,-0.36 -1.546,-0.843 -2.135,-1.448c-0.589,-0.605 -1.047,-1.308 -1.374,-2.11c-0.31,-0.801 -0.466,-1.644 -0.466,-2.527c0,-0.916 0.156,-1.775 0.466,-2.576c0.311,-0.818 0.761,-1.529 1.35,-2.135c0.589,-0.621 1.3,-1.112 2.134,-1.472c0.851,-0.36 1.8,-0.54 2.846,-0.54c1.047,0 1.979,0.18 2.797,0.54c0.835,0.36 1.538,0.843 2.11,1.448c0.589,0.605 1.031,1.308 1.325,2.11c0.311,0.801 0.466,1.635 0.466,2.502c0,0.213 -0.008,0.417 -0.024,0.614c-0,0.196 -0.017,0.36 -0.049,0.49l-9.937,0c0.049,0.507 0.172,0.957 0.368,1.35c0.196,0.392 0.45,0.728 0.761,1.006c0.31,0.278 0.662,0.49 1.055,0.638c0.392,0.147 0.801,0.221 1.226,0.221c0.655,-0 1.268,-0.156 1.841,-0.467c0.588,-0.327 0.989,-0.752 1.202,-1.275l2.821,0.785c-0.474,0.981 -1.235,1.791 -2.281,2.429c-1.031,0.621 -2.266,0.932 -3.705,0.932Zm3.337,-7.753c-0.082,-0.965 -0.442,-1.734 -1.08,-2.306c-0.622,-0.589 -1.382,-0.884 -2.282,-0.884c-0.441,0 -0.858,0.082 -1.251,0.246c-0.376,0.147 -0.712,0.36 -1.006,0.638c-0.294,0.278 -0.54,0.613 -0.736,1.006c-0.18,0.392 -0.286,0.826 -0.319,1.3l6.674,-0Z" style="fill:#1c6297;fill-rule:nonzero;"/><path d="M89.97,70.49c-0.982,-0 -1.857,-0.221 -2.626,-0.662c-0.768,-0.442 -1.374,-1.047 -1.815,-1.816l-0,2.233l-2.871,-0l0,-17.911l3.288,0l-0,7.311c0.458,-0.785 1.055,-1.39 1.791,-1.815c0.752,-0.442 1.627,-0.663 2.625,-0.663c0.834,0 1.595,0.18 2.282,0.54c0.687,0.36 1.276,0.843 1.766,1.448c0.508,0.605 0.892,1.317 1.154,2.134c0.278,0.818 0.417,1.677 0.417,2.577c-0,0.932 -0.156,1.799 -0.466,2.6c-0.295,0.802 -0.712,1.505 -1.252,2.11c-0.54,0.589 -1.177,1.055 -1.913,1.399c-0.737,0.343 -1.53,0.515 -2.38,0.515Zm-0.908,-2.797c0.523,-0 1.006,-0.098 1.447,-0.294c0.442,-0.213 0.818,-0.491 1.129,-0.835c0.311,-0.343 0.548,-0.744 0.712,-1.202c0.179,-0.458 0.269,-0.949 0.269,-1.472c0,-0.523 -0.081,-1.022 -0.245,-1.497c-0.163,-0.474 -0.401,-0.891 -0.711,-1.251c-0.295,-0.36 -0.647,-0.646 -1.055,-0.859c-0.409,-0.212 -0.859,-0.319 -1.35,-0.319c-0.736,0 -1.398,0.246 -1.987,0.737c-0.573,0.474 -1.014,1.063 -1.325,1.766l-0,3.067c0.114,0.327 0.278,0.621 0.491,0.883c0.229,0.262 0.482,0.491 0.76,0.687c0.278,0.18 0.581,0.327 0.908,0.442c0.327,0.098 0.646,0.147 0.957,0.147Z" style="fill:#1c6297;fill-rule:nonzero;"/></svg>